<?xml version="1.0" encoding="utf-8"?>
<!-- Generator: Adobe Illustrator 26.0.3, SVG Export Plug-In . SVG Version: 6.00 Build 0)  -->
<svg version="1.1" id="레이어_1" xmlns="http://www.w3.org/2000/svg" xmlns:xlink="http://www.w3.org/1999/xlink" x="0px"
	 y="0px" viewBox="0 0 80 30" style="enable-background:new 0 0 80 30;" xml:space="preserve">
<style type="text/css">
	.st0{fill:#004694;}
	.st1{fill:#91848A;}
	.st2{fill:#7BB52D;}
	.st3{fill:#F9FBFD;}
</style>
<path class="st0" d="M29.22,10.81h2.31v3.51l2.59-3.51h2.75l-3.19,4l3.41,4.6h-2.92l-2.7-3.89v3.89h-2.31v-8.61H29.22z"/>
<path class="st0" d="M38.8,10.81h2.26v8.55h-2.31v-8.55H38.8z"/>
<path class="st0" d="M44.85,12.51H42.7v-1.7h6.55v1.7h-2.15v6.91H44.8v-6.91H44.85z"/>
<path class="st0" d="M50.69,10.81h6.06v1.64h-3.8v1.75h3.58v1.64h-3.58v1.92h3.91v1.64h-6.17V10.81z"/>
<path class="st0" d="M65.77,19.19c-0.66,0.16-1.38,0.33-2.53,0.33c-2.31,0-4.95-1.15-4.95-4.38c0-2.96,2.09-4.49,4.95-4.49
	c0.88,0,1.71,0.22,2.53,0.44l-0.17,1.86c-0.72-0.38-1.43-0.6-2.26-0.6c-1.65,0-2.7,1.21-2.7,2.8c0,1.7,1.21,2.69,2.86,2.69
	c0.77,0,1.54-0.22,2.15-0.44L65.77,19.19z"/>
<path class="st0" d="M67.37,10.81h2.31v3.29h2.7v-3.29h2.31v8.55h-2.31v-3.67h-2.7v3.67h-2.31V10.81z"/>
<path class="st1" d="M17.21,11.46c-0.55,0.55-1.21,0.88-1.87,0.99c-0.17,0-0.28,0.05-0.44,0.05c-0.11,0-0.22,0.05-0.28,0.05
	c0.61,0.16,1.16,0.49,1.6,0.93c0.44,0.44,0.77,0.99,0.94,1.59c0-0.11,0.06-0.16,0.06-0.27c0-0.11,0-0.27,0.06-0.44
	c0.11-0.71,0.5-1.37,0.99-1.86c0.77-0.77,1.87-1.15,2.92-1.04c-0.72-0.11-1.38-0.49-1.87-0.99c-0.55-0.55-0.88-1.21-0.99-1.86
	C18.37,9.6,18.04,10.64,17.21,11.46z"/>
<path class="st2" d="M8.08,18.75c-0.06,0-0.06,0-0.11,0C8.02,18.7,8.02,18.75,8.08,18.75z"/>
<path class="st2" d="M18.32,8.61c0-0.05,0-0.11,0-0.16C18.26,8.45,18.32,8.5,18.32,8.61C18.32,8.56,18.32,8.56,18.32,8.61z"/>
<path class="st2" d="M18.32,8.61C18.32,8.56,18.32,8.56,18.32,8.61c0-0.05,0-0.11,0-0.16s0-0.11-0.06-0.22V8.18V8.12
	c0-0.05-0.06-0.16-0.06-0.22s0-0.11-0.06-0.11c0-0.05-0.06-0.11-0.06-0.16s-0.06-0.05-0.06-0.11c-0.06-0.16-0.11-0.22-0.11-0.27
	s-0.06-0.05-0.06-0.11c-0.06-0.05-0.11-0.16-0.17-0.22c0-0.05-0.05-0.05-0.05-0.11c-0.06-0.05-0.11-0.11-0.11-0.16
	c0-0.05-0.06-0.05-0.06-0.11c-0.11-0.11-0.17-0.16-0.28-0.22c-1.43-1.43-3.74-1.43-5.18,0c-0.05,0.05-0.17,0.16-0.22,0.22
	c-0.06,0.05-0.06,0.05-0.06,0.11c-0.06,0.05-0.06,0.11-0.11,0.16c0,0.05-0.06,0.05-0.06,0.11c-0.06,0.05-0.11,0.16-0.17,0.22
	c0,0,0,0.05-0.06,0.05c-0.06,0.11-0.06,0.16-0.11,0.27c0,0.05,0,0.05-0.06,0.11c-0.05,0.05-0.05,0.16-0.05,0.22s0,0.05-0.06,0.11
	c0,0.05-0.06,0.16-0.06,0.22v0.05c0,0,0,0,0,0.05c0,0.11-0.06,0.16-0.06,0.27v0.05c-0.11,0.71-0.5,1.37-0.99,1.86
	c-0.55,0.55-1.21,0.88-1.87,0.99c1.05-0.11,2.09,0.27,2.86,1.04c0.55,0.55,0.88,1.21,0.99,1.86c0,0.11,0.05,0.27,0.05,0.38
	c0,0.11,0.06,0.16,0.06,0.27c0.17-0.6,0.5-1.15,0.94-1.59c0.44-0.44,0.99-0.77,1.6-0.93c0.11,0,0.17-0.05,0.28-0.05
	s0.28-0.05,0.44-0.05c0.72-0.11,1.38-0.49,1.87-0.99C18.04,10.64,18.37,9.6,18.32,8.61z"/>
<path class="st1" d="M11.54,23.3c0-0.06-0.05-0.06-0.05-0.11C11.49,23.19,11.54,23.25,11.54,23.3z"/>
<path class="st1" d="M12.04,23.91c-0.06-0.05-0.17-0.16-0.22-0.22C11.93,23.74,11.98,23.85,12.04,23.91z"/>
<path class="st1" d="M11.1,22.32c0-0.05-0.06-0.11-0.06-0.16C11.1,22.21,11.1,22.26,11.1,22.32z"/>
<path class="st1" d="M11.05,21.99c0-0.05,0-0.16-0.06-0.22C10.99,21.82,11.05,21.88,11.05,21.99z"/>
<path class="st1" d="M11.21,22.65c0-0.05-0.06-0.11-0.06-0.16C11.16,22.48,11.21,22.59,11.21,22.65z"/>
<path class="st1" d="M11.32,22.92c0-0.05-0.06-0.11-0.06-0.16C11.27,22.81,11.32,22.86,11.32,22.92z"/>
<path class="st1" d="M11.71,23.52c-0.06-0.06-0.06-0.06-0.11-0.11C11.65,23.47,11.71,23.52,11.71,23.52z"/>
<path class="st1" d="M13.03,16.67c-0.44-0.44-0.77-0.99-0.94-1.59c0-0.11-0.06-0.16-0.06-0.27c0-0.11-0.06-0.27-0.06-0.38
	c-0.11-0.71-0.5-1.37-0.99-1.86c-0.77-0.77-1.87-1.15-2.86-1.04c-0.05,0-0.05,0-0.11,0c-0.11,0-0.17,0-0.28,0.05
	c-0.11,0-0.22,0.05-0.33,0.05H7.36c-0.06,0-0.17,0.05-0.22,0.11c0,0-0.06,0-0.06,0.05c-0.33,0-0.5,0.11-0.72,0.22l-0.06,0.05
	c-0.06,0.05-0.11,0.11-0.22,0.16l-0.06,0.05c-0.11,0.05-0.17,0.16-0.28,0.22c-1.43,1.43-1.43,3.73,0,5.15
	c0.06,0.05,0.17,0.16,0.22,0.22c0.06,0,0.06,0.05,0.11,0.05c0.06,0.05,0.11,0.11,0.17,0.11c0.06,0,0.06,0.05,0.11,0.05
	c0.06,0.05,0.17,0.11,0.22,0.11c0.06,0,0.06,0.05,0.11,0.05c0.06,0.05,0.17,0.05,0.22,0.11c0.06,0,0.06,0.05,0.11,0.05
	c0.06,0,0.17,0.05,0.22,0.05c0.05,0,0.05,0,0.11,0.05c0.11,0.05,0.22,0.05,0.33,0.05c0.11,0,0.17,0.05,0.28,0.05
	c0.05,0,0.05,0,0.11,0c0,0,0,0,0.05,0c0.72,0.11,1.38,0.49,1.87,0.99c0.55,0.55,0.88,1.21,0.99,1.86c-0.11-1.04,0.28-2.08,1.05-2.9
	c0.55-0.55,1.21-0.88,1.87-0.99c0.11-0.05,0.28-0.05,0.44-0.05c0.11,0,0.17-0.05,0.28-0.05C14.08,17.49,13.53,17.16,13.03,16.67z"/>
<path class="st0" d="M11.82,23.69c-0.06-0.06-0.06-0.11-0.11-0.11C11.76,23.58,11.82,23.63,11.82,23.69z"/>
<path class="st0" d="M11.65,23.41c-0.05-0.05-0.05-0.11-0.11-0.16C11.6,23.36,11.6,23.36,11.65,23.41z"/>
<path class="st0" d="M11.27,22.76c0-0.06-0.06-0.11-0.06-0.11S11.27,22.7,11.27,22.76z"/>
<path class="st0" d="M11.16,22.43c0-0.06,0-0.11-0.06-0.11C11.1,22.37,11.16,22.43,11.16,22.43z"/>
<path class="st0" d="M11.49,23.14c-0.06-0.05-0.11-0.16-0.11-0.22C11.38,22.97,11.43,23.08,11.49,23.14z"/>
<path class="st0" d="M11.05,21.99c0,0.05,0,0.11,0.06,0.16c0-0.05,0-0.05,0-0.11C11.05,21.99,11.05,21.99,11.05,21.99z"/>
<path class="st0" d="M23.49,12.51c-0.06-0.05-0.17-0.16-0.28-0.22l-0.05-0.05c-0.06-0.05-0.17-0.11-0.22-0.16c0,0-0.06,0-0.06-0.05
	c-0.22-0.11-0.39-0.22-0.61-0.33c0,0,0,0-0.06,0c-0.11-0.05-0.22-0.05-0.28-0.11c0,0,0,0-0.06,0c-0.11-0.05-0.22-0.05-0.33-0.05
	c-0.11,0-0.22-0.05-0.28-0.05c-0.06,0-0.06,0-0.11,0c-1.05-0.11-2.09,0.27-2.92,1.04c-0.55,0.55-0.88,1.21-0.99,1.86
	c0,0.11-0.06,0.27-0.06,0.44c0,0.11-0.06,0.22-0.06,0.27c-0.17,0.6-0.5,1.15-0.94,1.59c-0.44,0.44-0.99,0.77-1.6,0.93
	c-0.11,0-0.17,0.05-0.28,0.05c-0.11,0-0.28,0.05-0.44,0.05c-0.72,0.11-1.38,0.44-1.87,0.99c-0.77,0.77-1.16,1.86-1.05,2.9
	c0,0.05,0,0.05,0,0.11c0,0.05,0,0.16,0.06,0.22v0.05c0,0.05,0,0.05,0,0.11s0.06,0.11,0.06,0.16c0,0.05,0,0.11,0.06,0.11
	c0,0.05,0.06,0.11,0.06,0.16s0.06,0.11,0.06,0.11c0,0.05,0.06,0.11,0.06,0.16c0.06,0.05,0.11,0.16,0.11,0.22s0.06,0.05,0.06,0.11
	c0.06,0.05,0.06,0.11,0.11,0.16c0,0.05,0.06,0.05,0.11,0.11c0.06,0.05,0.06,0.11,0.11,0.11c0.06,0.05,0.11,0.16,0.22,0.22
	c1.43,1.43,3.74,1.43,5.18,0c0.06-0.05,0.17-0.16,0.22-0.22c0.06-0.05,0.06-0.05,0.11-0.11c0.06-0.05,0.06-0.11,0.11-0.16
	c0.06-0.05,0.06-0.11,0.11-0.11c0.06-0.05,0.06-0.11,0.06-0.11c0.06-0.11,0.11-0.16,0.17-0.27c0-0.05,0.06-0.11,0.06-0.11
	c0-0.05,0.06-0.11,0.06-0.16s0.06-0.11,0.06-0.11c0-0.05,0.06-0.11,0.06-0.16s0.06-0.11,0.06-0.16s0-0.05,0-0.11v-0.05
	c0-0.05,0-0.16,0.06-0.22c0-0.05,0-0.05,0-0.11c0.11-0.71,0.5-1.37,0.99-1.86c0.55-0.55,1.21-0.88,1.87-0.99c0,0,0,0,0.06,0
	c0.06,0,0.06,0,0.11,0c0.11,0,0.22,0,0.28-0.05c0.11,0,0.22-0.05,0.33-0.05H22c0.06,0,0.17-0.05,0.22-0.11c0.06,0,0.06,0,0.11-0.05
	c0.11-0.05,0.17-0.05,0.28-0.11s0.17-0.11,0.28-0.16c0.06,0,0.06-0.05,0.11-0.05c0.06-0.05,0.11-0.11,0.17-0.11
	c0.05,0,0.05-0.05,0.11-0.05c0.11-0.05,0.17-0.16,0.22-0.22C24.92,16.23,24.92,13.93,23.49,12.51z"/>
<path class="st3" d="M21.95,14.09c0.55,0.55,0.55,1.48,0,2.03c-0.55,0.55-1.49,0.55-2.04,0c-0.55-0.55-0.55-1.48,0-2.03
	S21.34,13.55,21.95,14.09z"/>
</svg>
