<?xml version="1.0" encoding="utf-8"?>
<!-- Generator: Adobe Illustrator 26.0.3, SVG Export Plug-In . SVG Version: 6.00 Build 0)  -->
<svg version="1.1" id="레이어_1" xmlns="http://www.w3.org/2000/svg" xmlns:xlink="http://www.w3.org/1999/xlink" x="0px"
	 y="0px" viewBox="0 0 25 469" style="enable-background:new 0 0 25 469;" xml:space="preserve">
<style type="text/css">
	.st0{fill:none;stroke:#BDBDBD;stroke-dasharray:2,4;}
	.st1{fill:#BDBDBD;}
	.st2{fill:#FFFFFF;}
	.st3{fill:none;stroke:#737373;stroke-width:2;}
	.st4{fill:#FFFFFF;stroke:#E2B644;}
	.st5{fill:#E2B644;}
</style>
<path class="st0" d="M13,46.75v423"/>
<circle class="st1" cx="13" cy="399.75" r="10"/>
<path class="st2" d="M10.73,402.62l2.5-3.75c0.32-0.54,0.62-1.08,0.89-1.62h0.06c-0.03,0.57-0.07,1.45-0.07,1.99v3.38H10.73z
	 M14.1,406.75h1.29v-3.03h1.46v-1.1h-1.46v-6.89h-1.52l-4.57,7.08v0.9h4.8V406.75z"/>
<path class="st3" d="M13,24.75v57"/>
<circle class="st4" cx="13" cy="12.75" r="11.5"/>
<circle class="st5" cx="13" cy="12.75" r="10"/>
<path class="st2" d="M10.32,19.75h6.03v-1.14h-2.2V8.74H13.1c-0.6,0.36-1.31,0.61-2.28,0.8v0.87h1.95v8.21h-2.45V19.75z"/>
<circle class="st1" cx="13" cy="141.75" r="10"/>
<path class="st2" d="M9.66,148.75h6.92v-1.18h-3.05c-0.55,0-1.23,0.06-1.8,0.1c2.58-2.44,4.31-4.68,4.31-6.87
	c0-1.96-1.23-3.26-3.19-3.26c-1.4,0-2.34,0.65-3.24,1.62l0.8,0.78c0.6-0.72,1.38-1.28,2.28-1.28c1.36,0,2.02,0.92,2.02,2.18
	c0,1.89-1.59,4.08-5.04,7.1V148.75z"/>
<circle class="st1" cx="13" cy="270.75" r="10"/>
<path class="st2" d="M12.96,277.95c1.95,0,3.53-1.17,3.53-3.14c0-1.5-1.04-2.49-2.33-2.79v-0.06c1.15-0.43,1.95-1.32,1.95-2.65
	c0-1.74-1.35-2.76-3.2-2.76c-1.27,0-2.25,0.55-3.07,1.32l0.73,0.87c0.61-0.63,1.4-1.06,2.28-1.06c1.14,0,1.86,0.69,1.86,1.74
	c0,1.18-0.78,2.1-3.05,2.1v1.05c2.53,0,3.42,0.89,3.42,2.19c0,1.27-0.93,2.05-2.24,2.05c-1.24,0-2.08-0.58-2.73-1.26l-0.69,0.9
	C10.15,277.23,11.23,277.95,12.96,277.95z"/>
<circle class="st5" cx="13" cy="81.75" r="5"/>
</svg>
