<?xml version="1.0" encoding="utf-8"?>
<!-- Generator: Adobe Illustrator 26.0.3, SVG Export Plug-In . SVG Version: 6.00 Build 0)  -->
<svg version="1.1" id="레이어_1" xmlns="http://www.w3.org/2000/svg" xmlns:xlink="http://www.w3.org/1999/xlink" x="0px"
	 y="0px" viewBox="0 0 25 469" style="enable-background:new 0 0 25 469;" xml:space="preserve">
<style type="text/css">
	.st0{fill:none;stroke:#737373;stroke-width:2;}
	.st1{fill:none;stroke:#BDBDBD;stroke-dasharray:2,4;}
	.st2{fill:#FFFFFF;stroke:#E2B644;}
	.st3{fill:#E2B644;}
	.st4{fill:#BDBDBD;}
	.st5{fill:#FFFFFF;}
</style>
<path class="st0" d="M12.5,24.45v22"/>
<path class="st1" d="M12.5,46.45v423"/>
<circle class="st2" cx="12.5" cy="12.45" r="11.5"/>
<circle class="st3" cx="12.5" cy="12.45" r="10"/>
<circle class="st3" cx="12.5" cy="46.45" r="5"/>
<circle class="st4" cx="12.5" cy="141.45" r="10"/>
<circle class="st4" cx="12.5" cy="270.45" r="10"/>
<circle class="st4" cx="12.5" cy="399.45" r="10"/>
<path class="st5" d="M9.23,401.33l2.5-3.75c0.32-0.54,0.62-1.08,0.89-1.62h0.06c-0.03,0.57-0.07,1.45-0.07,1.99v3.38H9.23z
	 M12.6,405.45h1.29v-3.03h1.45v-1.1h-1.45v-6.89h-1.52l-4.57,7.08v0.9h4.8V405.45z"/>
<path class="st5" d="M12.46,276.65c1.95,0,3.52-1.17,3.52-3.14c0-1.5-1.03-2.49-2.32-2.79v-0.06c1.15-0.43,1.95-1.32,1.95-2.65
	c0-1.74-1.35-2.76-3.19-2.76c-1.27,0-2.25,0.55-3.07,1.32l0.73,0.87c0.61-0.63,1.4-1.06,2.28-1.06c1.14,0,1.86,0.69,1.86,1.74
	c0,1.18-0.78,2.1-3.05,2.1v1.05c2.53,0,3.42,0.89,3.42,2.19c0,1.27-0.93,2.05-2.24,2.05c-1.24,0-2.08-0.58-2.73-1.26l-0.69,0.9
	C9.65,275.93,10.73,276.65,12.46,276.65z"/>
<path class="st5" d="M9.16,146.45h6.92v-1.18h-3.05c-0.55,0-1.23,0.06-1.8,0.1c2.58-2.44,4.31-4.68,4.31-6.87
	c0-1.96-1.23-3.26-3.19-3.26c-1.4,0-2.34,0.65-3.24,1.62l0.8,0.78c0.6-0.72,1.38-1.28,2.28-1.28c1.36,0,2.02,0.92,2.02,2.18
	c0,1.89-1.59,4.08-5.04,7.1V146.45z"/>
<path class="st5" d="M9.82,17.45h6.03v-1.14h-2.22V6.46h-1.05c-0.59,0.36-1.29,0.61-2.28,0.78v0.89h1.97v8.19H9.82V17.45z"/>
</svg>
