<?xml version="1.0" encoding="utf-8"?>
<!-- Generator: Adobe Illustrator 26.0.3, SVG Export Plug-In . SVG Version: 6.00 Build 0)  -->
<svg version="1.1" id="레이어_1" xmlns="http://www.w3.org/2000/svg" xmlns:xlink="http://www.w3.org/1999/xlink" x="0px"
	 y="0px" viewBox="0 0 25 469" style="enable-background:new 0 0 25 469;" xml:space="preserve">
<style type="text/css">
	.st0{fill:none;stroke:#737373;stroke-width:2;}
	.st1{fill:#FFFFFF;stroke:#E2B644;}
	.st2{fill:#E2B644;}
	.st3{fill:#FFFFFF;}
	.st4{fill:#FFFFFF;stroke:#D36767;}
	.st5{fill:#D36767;}
	.st6{fill:#FFFFFF;stroke:#3B74B8;}
	.st7{fill:#3B74B8;}
	.st8{fill:#318D7C;}
	.st9{fill:#FFFFFF;stroke:#318D7C;}
</style>
<path class="st0" d="M12.53,24.96v445"/>
<circle class="st1" cx="12.53" cy="12.96" r="11.5"/>
<circle class="st2" cx="12.53" cy="12.96" r="10"/>
<path class="st3" d="M9.85,18.96h6.03v-1.14h-2.2V7.97h-1.05c-0.6,0.34-1.31,0.6-2.28,0.78v0.87h1.95v8.21H9.85V18.96z"/>
<circle class="st4" cx="12.53" cy="141.96" r="11.5"/>
<circle class="st5" cx="12.53" cy="141.96" r="10"/>
<path class="st3" d="M9.19,147.96h6.91v-1.18h-3.05c-0.55,0-1.23,0.06-1.8,0.1c2.58-2.44,4.31-4.68,4.31-6.87
	c0-1.96-1.23-3.26-3.19-3.26c-1.4,0-2.34,0.65-3.24,1.62l0.8,0.78c0.6-0.72,1.38-1.28,2.28-1.28c1.36,0,2.02,0.92,2.02,2.18
	c0,1.89-1.59,4.08-5.04,7.1V147.96z"/>
<circle class="st6" cx="12.53" cy="270.96" r="11.5"/>
<circle class="st7" cx="12.53" cy="270.96" r="10"/>
<path class="st3" d="M12.49,277.16c1.95,0,3.52-1.17,3.52-3.14c0-1.5-1.03-2.49-2.34-2.79v-0.06c1.17-0.43,1.97-1.32,1.97-2.65
	c0-1.77-1.35-2.76-3.2-2.76c-1.27,0-2.25,0.55-3.07,1.32l0.73,0.87c0.61-0.61,1.4-1.06,2.28-1.09c1.14,0.03,1.86,0.7,1.86,1.77
	c0,1.18-0.78,2.1-3.05,2.1v1.05c2.53,0,3.42,0.89,3.42,2.21c0,1.26-0.93,2.04-2.24,2.04c-1.24,0-2.08-0.58-2.73-1.26l-0.69,0.9
	C9.69,276.44,10.77,277.16,12.49,277.16z"/>
<circle class="st8" cx="12.53" cy="469.96" r="5"/>
<circle class="st9" cx="12.53" cy="399.96" r="11.5"/>
<circle class="st8" cx="12.53" cy="399.96" r="10"/>
<path class="st3" d="M10.26,401.84l2.5-3.75c0.32-0.54,0.62-1.08,0.89-1.62h0.06c-0.03,0.57-0.09,1.45-0.09,1.99v3.38H10.26z
	 M16.38,401.84h-1.45v-6.87h-1.51l-4.57,7.07v0.9h4.78v3.03h1.3v-3.03h1.45V401.84z"/>
</svg>
