<?xml version="1.0" encoding="utf-8"?>
<!-- Generator: Adobe Illustrator 26.0.3, SVG Export Plug-In . SVG Version: 6.00 Build 0)  -->
<svg version="1.1" id="레이어_1" xmlns="http://www.w3.org/2000/svg" xmlns:xlink="http://www.w3.org/1999/xlink" x="0px"
	 y="0px" viewBox="0 0 25 469" style="enable-background:new 0 0 25 469;" xml:space="preserve">
<style type="text/css">
	.st0{fill:none;stroke:#BDBDBD;stroke-dasharray:2,4;}
	.st1{fill:#BDBDBD;}
	.st2{fill:#FFFFFF;}
	.st3{fill:none;stroke:#737373;stroke-width:2;}
	.st4{fill:#FFFFFF;stroke:#E2B644;}
	.st5{fill:#E2B644;}
	.st6{fill:#FFFFFF;stroke:#D36767;}
	.st7{fill:#D36767;}
</style>
<path class="st0" d="M12.93,189.9v280"/>
<circle class="st1" cx="12.93" cy="399.9" r="10"/>
<path class="st2" d="M10.65,401.77l2.5-3.75c0.32-0.54,0.62-1.08,0.89-1.62h0.06c-0.03,0.57-0.09,1.45-0.09,1.99v3.38H10.65z
	 M16.77,401.77h-1.45v-6.87H13.8l-4.57,7.07v0.9h4.78v3.03h1.31v-3.03h1.45V401.77z"/>
<path class="st3" d="M12.93,24.9v216"/>
<circle class="st4" cx="12.93" cy="12.9" r="11.5"/>
<circle class="st5" cx="12.93" cy="12.9" r="10"/>
<path class="st2" d="M10.25,18.9h6.03v-1.14h-2.2V7.9h-1.05c-0.6,0.34-1.31,0.6-2.28,0.78v0.87h1.95v8.2h-2.45V18.9z"/>
<circle class="st6" cx="12.93" cy="141.9" r="11.5"/>
<circle class="st7" cx="12.93" cy="141.9" r="10"/>
<path class="st2" d="M9.59,147.9h6.91v-1.18h-3.05c-0.55,0-1.23,0.06-1.8,0.1c2.58-2.44,4.31-4.68,4.31-6.87
	c0-1.96-1.23-3.26-3.19-3.26c-1.4,0-2.34,0.65-3.24,1.62l0.8,0.78c0.6-0.72,1.38-1.28,2.28-1.28c1.36,0,2.02,0.92,2.02,2.18
	c0,1.89-1.59,4.08-5.04,7.1V147.9z"/>
<circle class="st1" cx="12.93" cy="270.9" r="10"/>
<path class="st2" d="M12.89,277.09c1.95,0,3.52-1.17,3.52-3.14c0-1.5-1.03-2.49-2.34-2.79v-0.06c1.17-0.43,1.96-1.32,1.96-2.65
	c0-1.77-1.35-2.76-3.19-2.76c-1.27,0-2.25,0.55-3.07,1.32l0.73,0.87c0.61-0.61,1.4-1.06,2.28-1.09c1.14,0.03,1.86,0.7,1.86,1.77
	c0,1.18-0.78,2.1-3.05,2.1v1.05c2.53,0,3.42,0.89,3.42,2.21c0,1.26-0.93,2.04-2.24,2.04c-1.24,0-2.08-0.58-2.73-1.26l-0.69,0.9
	C10.08,276.37,11.16,277.09,12.89,277.09z"/>
<circle class="st7" cx="12.93" cy="211.9" r="5"/>
</svg>
